<mxfile host="app.diagrams.net" agent="Mozilla/5.0 (Windows NT 10.0; Win64; x64) AppleWebKit/537.36 (KHTML, like Gecko) Chrome/139.0.0.0 Safari/537.36 Edg/139.0.0.0" version="27.1.5">
  <diagram name="Page-1" id="OB-Skv7ipIgz0RFftd0Z">
    <mxGraphModel dx="2009" dy="1139" grid="0" gridSize="10" guides="1" tooltips="1" connect="1" arrows="1" fold="1" page="1" pageScale="1" pageWidth="1169" pageHeight="827" background="#FFFFFF" math="0" shadow="0" adaptiveColors="none">
      <root>
        <mxCell id="A9TOfrX54KiNDDk2kyXw-0" />
        <mxCell id="A9TOfrX54KiNDDk2kyXw-1" parent="A9TOfrX54KiNDDk2kyXw-0" />
        <mxCell id="pcRGNQqygn--t2DNfjO_-10" value="" style="swimlane;startSize=0;fontFamily=Verdana;rounded=1;gradientDirection=radial;shadow=0;swimlaneLine=0;glass=1;fillStyle=solid;swimlaneFillColor=none;strokeWidth=1;perimeterSpacing=0;fillColor=#EDEDED;strokeColor=#C7C7C7;labelBackgroundColor=#888888;" parent="A9TOfrX54KiNDDk2kyXw-1" vertex="1">
          <mxGeometry x="131" y="19" width="835" height="756" as="geometry">
            <mxRectangle x="131" y="20" width="43" height="26" as="alternateBounds" />
          </mxGeometry>
        </mxCell>
        <mxCell id="jMzyqpWjSi7Y2Doyyjrz-6" value="" style="swimlane;startSize=0;strokeColor=#DADADA;swimlaneFillColor=#F4F4F4;dashed=1;fontFamily=Verdana;fontColor=light-dark(default, #f4f4f4);" parent="pcRGNQqygn--t2DNfjO_-10" vertex="1">
          <mxGeometry x="14" y="71" width="804" height="670" as="geometry" />
        </mxCell>
        <mxCell id="jMzyqpWjSi7Y2Doyyjrz-7" value="" style="image;aspect=fixed;html=1;points=[];align=center;fontSize=12;image=img/lib/azure2/networking/Virtual_Networks.svg;fontFamily=Verdana;" parent="jMzyqpWjSi7Y2Doyyjrz-6" vertex="1">
          <mxGeometry x="15" y="19" width="37" height="22.09" as="geometry" />
        </mxCell>
        <mxCell id="jMzyqpWjSi7Y2Doyyjrz-9" value="&lt;b&gt;Virtual Network&lt;/b&gt;&lt;div&gt;&lt;i&gt;10.0.0.0/16&lt;/i&gt;&lt;/div&gt;" style="text;html=1;align=left;verticalAlign=middle;resizable=0;points=[];autosize=1;strokeColor=none;fillColor=none;fontFamily=Verdana;" parent="jMzyqpWjSi7Y2Doyyjrz-6" vertex="1">
          <mxGeometry x="59" y="10.040000000000006" width="125" height="41" as="geometry" />
        </mxCell>
        <mxCell id="jMzyqpWjSi7Y2Doyyjrz-10" value="" style="swimlane;startSize=0;dashed=1;strokeColor=#9D9D9D;swimlaneFillColor=#E7E7E7;rotation=0;fontFamily=Verdana;" parent="jMzyqpWjSi7Y2Doyyjrz-6" vertex="1">
          <mxGeometry x="159" y="53" width="150" height="204" as="geometry" />
        </mxCell>
        <mxCell id="jMzyqpWjSi7Y2Doyyjrz-19" value="" style="image;aspect=fixed;html=1;points=[];align=center;fontSize=12;image=img/lib/azure2/networking/Subnet.svg;fontFamily=Verdana;" parent="jMzyqpWjSi7Y2Doyyjrz-10" vertex="1">
          <mxGeometry x="8.66" y="10" width="28.39" height="17" as="geometry" />
        </mxCell>
        <mxCell id="jMzyqpWjSi7Y2Doyyjrz-20" value="&lt;font style=&quot;font-size: 11px;&quot;&gt;&lt;b&gt;AiServices&lt;/b&gt;&lt;br&gt;&lt;i&gt;10.1.0.0/24&lt;/i&gt;&lt;/font&gt;" style="text;html=1;align=left;verticalAlign=middle;resizable=0;points=[];autosize=1;strokeColor=none;fillColor=none;fontFamily=Verdana;" parent="jMzyqpWjSi7Y2Doyyjrz-10" vertex="1">
          <mxGeometry x="38" y="-1" width="84" height="41" as="geometry" />
        </mxCell>
        <mxCell id="jMzyqpWjSi7Y2Doyyjrz-47" value="Private&lt;br&gt;&lt;div&gt;&lt;span style=&quot;color: light-dark(rgb(0, 0, 0), rgb(255, 255, 255));&quot;&gt;Endpoint&lt;/span&gt;&lt;/div&gt;" style="image;aspect=fixed;html=1;points=[];align=center;fontSize=7;image=img/lib/azure2/networking/Private_Endpoint.svg;fontFamily=Verdana;labelPosition=center;verticalLabelPosition=bottom;verticalAlign=top;labelBackgroundColor=#E7E7E7;" parent="jMzyqpWjSi7Y2Doyyjrz-10" vertex="1">
          <mxGeometry x="11" y="93" width="37.09" height="34" as="geometry" />
        </mxCell>
        <mxCell id="jMzyqpWjSi7Y2Doyyjrz-48" value="Private&lt;br&gt;Endpoint" style="image;aspect=fixed;html=1;points=[];align=center;fontSize=7;image=img/lib/azure2/networking/Private_Endpoint.svg;fontFamily=Verdana;labelPosition=center;verticalLabelPosition=bottom;verticalAlign=top;labelBackgroundColor=#E7E7E7;" parent="jMzyqpWjSi7Y2Doyyjrz-10" vertex="1">
          <mxGeometry x="80.94999999999999" y="93" width="37.09" height="34" as="geometry" />
        </mxCell>
        <mxCell id="jMzyqpWjSi7Y2Doyyjrz-13" value="" style="swimlane;startSize=0;dashed=1;strokeColor=#9D9D9D;swimlaneFillColor=#E7E7E7;rotation=0;fontFamily=Verdana;" parent="jMzyqpWjSi7Y2Doyyjrz-6" vertex="1">
          <mxGeometry x="309" y="53" width="349" height="204" as="geometry" />
        </mxCell>
        <mxCell id="jMzyqpWjSi7Y2Doyyjrz-25" value="" style="image;aspect=fixed;html=1;points=[];align=center;fontSize=12;image=img/lib/azure2/networking/Subnet.svg;fontFamily=Verdana;" parent="jMzyqpWjSi7Y2Doyyjrz-13" vertex="1">
          <mxGeometry x="8" y="9.5" width="27.56" height="16.5" as="geometry" />
        </mxCell>
        <mxCell id="jMzyqpWjSi7Y2Doyyjrz-26" value="&lt;font style=&quot;font-size: 11px;&quot;&gt;&lt;b&gt;Data&lt;/b&gt;&lt;br&gt;&lt;i&gt;10.0.2.0/24&lt;/i&gt;&lt;/font&gt;" style="text;html=1;align=left;verticalAlign=middle;resizable=0;points=[];autosize=1;strokeColor=none;fillColor=none;fontFamily=Verdana;" parent="jMzyqpWjSi7Y2Doyyjrz-13" vertex="1">
          <mxGeometry x="37.34000000000003" y="-1.5" width="84" height="41" as="geometry" />
        </mxCell>
        <mxCell id="jMzyqpWjSi7Y2Doyyjrz-50" value="Private&lt;br&gt;Endpoint" style="image;aspect=fixed;html=1;points=[];align=center;fontSize=7;image=img/lib/azure2/networking/Private_Endpoint.svg;fontFamily=Verdana;labelBackgroundColor=#E7E7E7;labelPosition=center;verticalLabelPosition=bottom;verticalAlign=top;" parent="jMzyqpWjSi7Y2Doyyjrz-13" vertex="1">
          <mxGeometry x="12" y="94" width="37.09" height="34" as="geometry" />
        </mxCell>
        <mxCell id="jMzyqpWjSi7Y2Doyyjrz-51" value="Private&lt;br&gt;Endpoint" style="image;aspect=fixed;html=1;points=[];align=center;fontSize=7;image=img/lib/azure2/networking/Private_Endpoint.svg;fontFamily=Verdana;labelBackgroundColor=#E7E7E7;labelPosition=center;verticalLabelPosition=bottom;verticalAlign=top;" parent="jMzyqpWjSi7Y2Doyyjrz-13" vertex="1">
          <mxGeometry x="83" y="94" width="37.09" height="34" as="geometry" />
        </mxCell>
        <mxCell id="jMzyqpWjSi7Y2Doyyjrz-52" value="Private&lt;br&gt;Endpoint" style="image;aspect=fixed;html=1;points=[];align=center;fontSize=7;image=img/lib/azure2/networking/Private_Endpoint.svg;fontFamily=Verdana;labelBackgroundColor=#E7E7E7;labelPosition=center;verticalLabelPosition=bottom;verticalAlign=top;" parent="jMzyqpWjSi7Y2Doyyjrz-13" vertex="1">
          <mxGeometry x="155" y="94" width="37.09" height="34" as="geometry" />
        </mxCell>
        <mxCell id="CsdJewZucDD4-k5Zqt_t-42" value="Private&lt;br&gt;Endpoint" style="image;aspect=fixed;html=1;points=[];align=center;fontSize=7;image=img/lib/azure2/networking/Private_Endpoint.svg;fontFamily=Verdana;labelBackgroundColor=#E7E7E7;labelPosition=center;verticalLabelPosition=bottom;verticalAlign=top;" parent="jMzyqpWjSi7Y2Doyyjrz-13" vertex="1">
          <mxGeometry x="226" y="94" width="37.09" height="34" as="geometry" />
        </mxCell>
        <mxCell id="CsdJewZucDD4-k5Zqt_t-60" value="Private&lt;br&gt;Endpoint" style="image;aspect=fixed;html=1;points=[];align=center;fontSize=7;image=img/lib/azure2/networking/Private_Endpoint.svg;fontFamily=Verdana;labelBackgroundColor=#E7E7E7;labelPosition=center;verticalLabelPosition=bottom;verticalAlign=top;" parent="jMzyqpWjSi7Y2Doyyjrz-13" vertex="1">
          <mxGeometry x="297" y="94" width="37.09" height="34" as="geometry" />
        </mxCell>
        <mxCell id="jMzyqpWjSi7Y2Doyyjrz-14" value="" style="swimlane;startSize=0;dashed=1;strokeColor=#9D9D9D;swimlaneFillColor=#E7E7E7;rotation=0;fontFamily=Verdana;" parent="jMzyqpWjSi7Y2Doyyjrz-6" vertex="1">
          <mxGeometry x="658" y="53.04" width="135.34000000000003" height="204" as="geometry" />
        </mxCell>
        <mxCell id="jMzyqpWjSi7Y2Doyyjrz-27" value="" style="image;aspect=fixed;html=1;points=[];align=center;fontSize=12;image=img/lib/azure2/networking/Subnet.svg;fontFamily=Verdana;" parent="jMzyqpWjSi7Y2Doyyjrz-14" vertex="1">
          <mxGeometry x="10" y="11.5" width="27.56" height="16.5" as="geometry" />
        </mxCell>
        <mxCell id="jMzyqpWjSi7Y2Doyyjrz-28" value="&lt;font style=&quot;font-size: 11px;&quot;&gt;&lt;b&gt;Management&lt;/b&gt;&lt;br&gt;&lt;i&gt;10.0.3.0/24&lt;/i&gt;&lt;/font&gt;&lt;div&gt;&lt;font style=&quot;font-size: 11px;&quot;&gt;&lt;i&gt;Not used yet&lt;/i&gt;&lt;/font&gt;&lt;/div&gt;" style="text;html=1;align=left;verticalAlign=middle;resizable=0;points=[];autosize=1;strokeColor=none;fillColor=none;fontFamily=Verdana;" parent="jMzyqpWjSi7Y2Doyyjrz-14" vertex="1">
          <mxGeometry x="37.34000000000003" y="-2.5" width="98" height="55" as="geometry" />
        </mxCell>
        <mxCell id="CsdJewZucDD4-k5Zqt_t-172" value="Private&lt;br&gt;Endpoint" style="image;aspect=fixed;html=1;points=[];align=center;fontSize=7;image=img/lib/azure2/networking/Private_Endpoint.svg;fontFamily=Verdana;labelBackgroundColor=#E7E7E7;labelPosition=center;verticalLabelPosition=bottom;verticalAlign=top;" parent="jMzyqpWjSi7Y2Doyyjrz-14" vertex="1">
          <mxGeometry x="47.129999999999995" y="97.96000000000001" width="37.09" height="34" as="geometry" />
        </mxCell>
        <mxCell id="jMzyqpWjSi7Y2Doyyjrz-85" style="edgeStyle=orthogonalEdgeStyle;rounded=0;orthogonalLoop=1;jettySize=auto;html=1;strokeColor=#00CC66;" parent="jMzyqpWjSi7Y2Doyyjrz-6" source="jMzyqpWjSi7Y2Doyyjrz-58" target="jMzyqpWjSi7Y2Doyyjrz-47" edge="1">
          <mxGeometry relative="1" as="geometry">
            <Array as="points">
              <mxPoint x="189" y="127" />
            </Array>
          </mxGeometry>
        </mxCell>
        <mxCell id="jMzyqpWjSi7Y2Doyyjrz-55" value="" style="swimlane;startSize=0;dashed=1;strokeColor=#9D9D9D;swimlaneFillColor=#E7E7E7;rotation=0;fontFamily=Verdana;" parent="jMzyqpWjSi7Y2Doyyjrz-6" vertex="1">
          <mxGeometry x="14.32" y="53" width="144.68" height="204" as="geometry" />
        </mxCell>
        <mxCell id="jMzyqpWjSi7Y2Doyyjrz-56" value="" style="image;aspect=fixed;html=1;points=[];align=center;fontSize=12;image=img/lib/azure2/networking/Subnet.svg;fontFamily=Verdana;" parent="jMzyqpWjSi7Y2Doyyjrz-55" vertex="1">
          <mxGeometry x="10.339999999999918" y="9.5" width="27.56" height="16.5" as="geometry" />
        </mxCell>
        <mxCell id="jMzyqpWjSi7Y2Doyyjrz-57" value="&lt;font style=&quot;font-size: 11px;&quot;&gt;&lt;b&gt;Bastion&lt;/b&gt;&lt;br&gt;&lt;i&gt;10.0.255.0/27&lt;/i&gt;&lt;/font&gt;" style="text;html=1;align=left;verticalAlign=middle;resizable=0;points=[];autosize=1;strokeColor=none;fillColor=none;fontFamily=Verdana;" parent="jMzyqpWjSi7Y2Doyyjrz-55" vertex="1">
          <mxGeometry x="39.680000000000064" y="-1.5" width="98" height="41" as="geometry" />
        </mxCell>
        <mxCell id="jMzyqpWjSi7Y2Doyyjrz-58" value="Azure Bastion&lt;br&gt;(optional)" style="image;aspect=fixed;html=1;points=[];align=center;fontSize=12;image=img/lib/azure2/networking/Bastions.svg;labelBackgroundColor=none;fontFamily=Verdana;" parent="jMzyqpWjSi7Y2Doyyjrz-55" vertex="1">
          <mxGeometry x="41.9" y="40" width="57.99999999999999" height="68" as="geometry" />
        </mxCell>
        <mxCell id="jMzyqpWjSi7Y2Doyyjrz-88" style="edgeStyle=orthogonalEdgeStyle;rounded=0;orthogonalLoop=1;jettySize=auto;html=1;strokeColor=#00CC66;entryX=0.485;entryY=-0.029;entryDx=0;entryDy=0;entryPerimeter=0;" parent="jMzyqpWjSi7Y2Doyyjrz-6" source="jMzyqpWjSi7Y2Doyyjrz-58" target="jMzyqpWjSi7Y2Doyyjrz-50" edge="1">
          <mxGeometry relative="1" as="geometry" />
        </mxCell>
        <mxCell id="pcRGNQqygn--t2DNfjO_-16" value="AI Search&lt;div&gt;(optional)&lt;/div&gt;" style="image;aspect=fixed;html=1;points=[];align=center;fontSize=12;image=img/lib/azure2/app_services/Search_Services.svg;fontFamily=Verdana;rounded=0;strokeColor=#C7C7C7;labelBackgroundColor=#F4F4F4;labelPosition=center;verticalLabelPosition=bottom;verticalAlign=top;" parent="jMzyqpWjSi7Y2Doyyjrz-6" vertex="1">
          <mxGeometry x="224" y="453.88" width="68" height="49.120000000000005" as="geometry" />
        </mxCell>
        <mxCell id="pcRGNQqygn--t2DNfjO_-15" value="AI Foundry&lt;br&gt;(FKA AI Services)" style="image;aspect=fixed;html=1;points=[];align=center;fontSize=12;image=img/lib/azure2/ai_machine_learning/AI_Studio.svg;fontFamily=Verdana;rounded=0;strokeColor=#C7C7C7;labelBackgroundColor=#F4F4F4;labelPosition=center;verticalLabelPosition=top;verticalAlign=bottom;" parent="jMzyqpWjSi7Y2Doyyjrz-6" vertex="1">
          <mxGeometry x="148.55" y="311.5" width="64" height="68" as="geometry" />
        </mxCell>
        <mxCell id="CsdJewZucDD4-k5Zqt_t-1" value="AI Foundry&lt;br&gt;Project(s)" style="image;aspect=fixed;html=1;points=[];align=center;fontSize=12;image=img/lib/azure2/ai_machine_learning/AI_Studio.svg;fontFamily=Verdana;rounded=0;strokeColor=#C7C7C7;labelBackgroundColor=#F4F4F4;" parent="jMzyqpWjSi7Y2Doyyjrz-6" vertex="1">
          <mxGeometry x="148.55" y="435" width="64" height="68" as="geometry" />
        </mxCell>
        <mxCell id="CsdJewZucDD4-k5Zqt_t-18" value="" style="swimlane;startSize=0;fillColor=#6a00ff;fontColor=#ffffff;strokeColor=light-dark(#E4E4E4,#878787);" parent="jMzyqpWjSi7Y2Doyyjrz-6" vertex="1">
          <mxGeometry x="382" y="267.78" width="276" height="386.22" as="geometry" />
        </mxCell>
        <mxCell id="CsdJewZucDD4-k5Zqt_t-19" value="AI Foundry&lt;br&gt;Hub" style="image;aspect=fixed;html=1;points=[];align=center;fontSize=12;image=img/lib/azure2/ai_machine_learning/AI_Studio.svg;fontFamily=Verdana;rounded=0;strokeColor=#C7C7C7;labelPosition=center;verticalLabelPosition=top;verticalAlign=bottom;labelBackgroundColor=none;" parent="CsdJewZucDD4-k5Zqt_t-18" vertex="1">
          <mxGeometry x="21" y="39.5" width="64" height="68" as="geometry" />
        </mxCell>
        <mxCell id="CsdJewZucDD4-k5Zqt_t-20" value="Key Vault&lt;br&gt;Hub" style="image;aspect=fixed;html=1;points=[];align=center;fontSize=12;image=img/lib/azure2/security/Key_Vaults.svg;fontFamily=Verdana;rounded=0;strokeColor=#C7C7C7;labelBackgroundColor=none;" parent="CsdJewZucDD4-k5Zqt_t-18" vertex="1">
          <mxGeometry x="175.5" y="10" width="68" height="68" as="geometry" />
        </mxCell>
        <mxCell id="CsdJewZucDD4-k5Zqt_t-21" value="Container Registry&lt;br&gt;Hub&amp;nbsp;&lt;span style=&quot;color: light-dark(rgb(0, 0, 0), rgb(255, 255, 255));&quot;&gt;(optional)&lt;/span&gt;" style="image;aspect=fixed;html=1;points=[];align=center;fontSize=12;image=img/lib/azure2/containers/Container_Registries.svg;fontFamily=Verdana;rounded=0;strokeColor=#C7C7C7;labelPosition=center;verticalLabelPosition=bottom;verticalAlign=top;labelBackgroundColor=none;" parent="CsdJewZucDD4-k5Zqt_t-18" vertex="1">
          <mxGeometry x="177" y="210" width="68" height="61" as="geometry" />
        </mxCell>
        <mxCell id="CsdJewZucDD4-k5Zqt_t-22" value="Storage Account&lt;br&gt;Hub" style="image;aspect=fixed;html=1;points=[];align=center;fontSize=12;image=img/lib/azure2/storage/Storage_Accounts.svg;fontFamily=Verdana;rounded=0;strokeColor=#C7C7C7;labelBackgroundColor=none;" parent="CsdJewZucDD4-k5Zqt_t-18" vertex="1">
          <mxGeometry x="177" y="116" width="65" height="52" as="geometry" />
        </mxCell>
        <mxCell id="CsdJewZucDD4-k5Zqt_t-23" value="Hub-based&lt;br&gt;Project(s)" style="image;aspect=fixed;html=1;points=[];align=center;fontSize=12;image=img/lib/azure2/ai_machine_learning/AI_Studio.svg;fontFamily=Verdana;rounded=0;strokeColor=#C7C7C7;labelBackgroundColor=none;" parent="CsdJewZucDD4-k5Zqt_t-18" vertex="1">
          <mxGeometry x="23" y="163" width="64" height="68" as="geometry" />
        </mxCell>
        <mxCell id="CsdJewZucDD4-k5Zqt_t-24" value="&lt;div style=&quot;&quot;&gt;&lt;span style=&quot;background-color: transparent; color: light-dark(rgb(0, 0, 0), rgb(255, 255, 255));&quot;&gt;&lt;b&gt;Hub Deployment&lt;/b&gt;&lt;/span&gt;&lt;/div&gt;to support Hub-based&lt;br&gt;projects (o&lt;span style=&quot;background-color: transparent; color: light-dark(rgb(0, 0, 0), rgb(255, 255, 255));&quot;&gt;ptional)&lt;/span&gt;" style="text;html=1;align=left;verticalAlign=middle;resizable=0;points=[];autosize=1;strokeColor=none;fillColor=none;" parent="CsdJewZucDD4-k5Zqt_t-18" vertex="1">
          <mxGeometry x="6" y="331.22" width="133" height="55" as="geometry" />
        </mxCell>
        <mxCell id="CsdJewZucDD4-k5Zqt_t-58" value="" style="edgeStyle=orthogonalEdgeStyle;rounded=0;orthogonalLoop=1;jettySize=auto;html=1;fontFamily=Verdana;dashed=1;endArrow=classic;startFill=0;endFill=1;strokeColor=#999999;entryX=0.49;entryY=0.943;entryDx=0;entryDy=0;entryPerimeter=0;exitX=0.459;exitY=0.022;exitDx=0;exitDy=0;exitPerimeter=0;" parent="CsdJewZucDD4-k5Zqt_t-18" source="CsdJewZucDD4-k5Zqt_t-23" target="CsdJewZucDD4-k5Zqt_t-19" edge="1">
          <mxGeometry relative="1" as="geometry">
            <mxPoint x="-32" y="236" as="sourcePoint" />
            <mxPoint x="-32" y="176" as="targetPoint" />
          </mxGeometry>
        </mxCell>
        <mxCell id="CsdJewZucDD4-k5Zqt_t-78" value="" style="ellipse;whiteSpace=wrap;html=1;aspect=fixed;fillColor=#FFB366;strokeColor=#FFE6CC;" parent="CsdJewZucDD4-k5Zqt_t-18" vertex="1">
          <mxGeometry x="-4" y="277" width="9" height="9" as="geometry" />
        </mxCell>
        <mxCell id="CsdJewZucDD4-k5Zqt_t-83" value="" style="endArrow=classic;html=1;rounded=0;endFill=1;strokeColor=#FFB366;edgeStyle=orthogonalEdgeStyle;exitX=0.02;exitY=0.498;exitDx=0;exitDy=0;exitPerimeter=0;entryX=1;entryY=0.5;entryDx=0;entryDy=0;" parent="CsdJewZucDD4-k5Zqt_t-18" target="CsdJewZucDD4-k5Zqt_t-78" edge="1">
          <mxGeometry width="50" height="50" relative="1" as="geometry">
            <mxPoint x="32.27999999999997" y="73.36400000000003" as="sourcePoint" />
            <mxPoint x="14.999999999986358" y="281.5" as="targetPoint" />
            <Array as="points">
              <mxPoint x="16" y="73" />
              <mxPoint x="16" y="282" />
            </Array>
          </mxGeometry>
        </mxCell>
        <mxCell id="CsdJewZucDD4-k5Zqt_t-89" value="" style="endArrow=none;html=1;rounded=0;endFill=1;strokeColor=#FFB366;edgeStyle=orthogonalEdgeStyle;startFill=0;entryX=1;entryY=0.5;entryDx=0;entryDy=0;" parent="CsdJewZucDD4-k5Zqt_t-18" source="CsdJewZucDD4-k5Zqt_t-21" target="CsdJewZucDD4-k5Zqt_t-78" edge="1">
          <mxGeometry width="50" height="50" relative="1" as="geometry">
            <mxPoint x="37" y="341.22" as="sourcePoint" />
            <mxPoint x="-17" y="282.22" as="targetPoint" />
            <Array as="points">
              <mxPoint x="134" y="253" />
              <mxPoint x="134" y="282" />
            </Array>
          </mxGeometry>
        </mxCell>
        <mxCell id="CsdJewZucDD4-k5Zqt_t-169" value="" style="endArrow=none;html=1;rounded=0;endFill=1;strokeColor=#FFB366;edgeStyle=orthogonalEdgeStyle;startFill=0;entryX=1;entryY=0.5;entryDx=0;entryDy=0;" parent="CsdJewZucDD4-k5Zqt_t-18" target="CsdJewZucDD4-k5Zqt_t-78" edge="1">
          <mxGeometry width="50" height="50" relative="1" as="geometry">
            <mxPoint x="177" y="155.22000000000003" as="sourcePoint" />
            <mxPoint x="94" y="287.22" as="targetPoint" />
            <Array as="points">
              <mxPoint x="134" y="155" />
              <mxPoint x="134" y="282" />
            </Array>
          </mxGeometry>
        </mxCell>
        <mxCell id="CsdJewZucDD4-k5Zqt_t-170" value="" style="endArrow=none;html=1;rounded=0;endFill=1;strokeColor=#FFB366;edgeStyle=orthogonalEdgeStyle;startFill=0;entryX=1;entryY=0.5;entryDx=0;entryDy=0;exitX=-0.007;exitY=0.646;exitDx=0;exitDy=0;exitPerimeter=0;" parent="CsdJewZucDD4-k5Zqt_t-18" source="CsdJewZucDD4-k5Zqt_t-20" target="CsdJewZucDD4-k5Zqt_t-78" edge="1">
          <mxGeometry width="50" height="50" relative="1" as="geometry">
            <mxPoint x="304" y="173.44000000000005" as="sourcePoint" />
            <mxPoint x="132" y="300.22" as="targetPoint" />
            <Array as="points">
              <mxPoint x="134" y="54" />
              <mxPoint x="134" y="282" />
            </Array>
          </mxGeometry>
        </mxCell>
        <mxCell id="CsdJewZucDD4-k5Zqt_t-175" value="Managed&#xa;Identity" style="image;aspect=fixed;html=1;points=[];align=center;image=img/lib/azure2/identity/Entra_Managed_Identities.svg;labelPosition=center;verticalLabelPosition=top;verticalAlign=bottom;spacing=2;fontSize=7;labelBackgroundColor=none;" parent="CsdJewZucDD4-k5Zqt_t-18" vertex="1">
          <mxGeometry x="76" y="48.22000000000003" width="20" height="17.78" as="geometry" />
        </mxCell>
        <mxCell id="CsdJewZucDD4-k5Zqt_t-176" value="Managed&#xa;Identity" style="image;aspect=fixed;html=1;points=[];align=right;image=img/lib/azure2/identity/Entra_Managed_Identities.svg;labelPosition=left;verticalLabelPosition=middle;verticalAlign=middle;spacing=2;fontSize=7;labelBackgroundColor=none;" parent="CsdJewZucDD4-k5Zqt_t-18" vertex="1">
          <mxGeometry x="174" y="108.22000000000003" width="20" height="17.78" as="geometry" />
        </mxCell>
        <mxCell id="pcRGNQqygn--t2DNfjO_-5" value="Application&lt;br&gt;Insights" style="image;aspect=fixed;html=1;points=[];align=center;fontSize=12;image=img/lib/azure2/devops/Application_Insights.svg;fontFamily=Verdana;rounded=0;strokeColor=#C7C7C7;labelBackgroundColor=none;labelPosition=center;verticalLabelPosition=top;verticalAlign=bottom;" parent="jMzyqpWjSi7Y2Doyyjrz-6" vertex="1">
          <mxGeometry x="54" y="311.5" width="44" height="63" as="geometry" />
        </mxCell>
        <mxCell id="pcRGNQqygn--t2DNfjO_-33" value="" style="edgeStyle=orthogonalEdgeStyle;rounded=0;orthogonalLoop=1;jettySize=auto;html=1;fontFamily=Verdana;dashed=1;endArrow=classic;startFill=0;endFill=1;strokeColor=#999999;" parent="jMzyqpWjSi7Y2Doyyjrz-6" source="pcRGNQqygn--t2DNfjO_-5" target="pcRGNQqygn--t2DNfjO_-6" edge="1">
          <mxGeometry relative="1" as="geometry" />
        </mxCell>
        <mxCell id="CsdJewZucDD4-k5Zqt_t-44" style="edgeStyle=orthogonalEdgeStyle;rounded=0;orthogonalLoop=1;jettySize=auto;html=1;strokeColor=#00CC66;entryX=0.485;entryY=0.029;entryDx=0;entryDy=0;entryPerimeter=0;exitX=0.962;exitY=0.5;exitDx=0;exitDy=0;exitPerimeter=0;" parent="jMzyqpWjSi7Y2Doyyjrz-6" source="jMzyqpWjSi7Y2Doyyjrz-58" target="jMzyqpWjSi7Y2Doyyjrz-51" edge="1">
          <mxGeometry relative="1" as="geometry">
            <mxPoint x="522" y="81" as="sourcePoint" />
            <mxPoint x="778" y="100" as="targetPoint" />
          </mxGeometry>
        </mxCell>
        <mxCell id="CsdJewZucDD4-k5Zqt_t-45" style="edgeStyle=orthogonalEdgeStyle;rounded=0;orthogonalLoop=1;jettySize=auto;html=1;strokeColor=#00CC66;entryX=0.485;entryY=0;entryDx=0;entryDy=0;entryPerimeter=0;exitX=0.962;exitY=0.5;exitDx=0;exitDy=0;exitPerimeter=0;" parent="jMzyqpWjSi7Y2Doyyjrz-6" source="jMzyqpWjSi7Y2Doyyjrz-58" target="jMzyqpWjSi7Y2Doyyjrz-52" edge="1">
          <mxGeometry relative="1" as="geometry">
            <mxPoint x="630" y="223" as="sourcePoint" />
            <mxPoint x="968" y="244" as="targetPoint" />
          </mxGeometry>
        </mxCell>
        <mxCell id="CsdJewZucDD4-k5Zqt_t-46" style="edgeStyle=orthogonalEdgeStyle;rounded=0;orthogonalLoop=1;jettySize=auto;html=1;strokeColor=#00CC66;entryX=0.485;entryY=0.029;entryDx=0;entryDy=0;entryPerimeter=0;exitX=0.962;exitY=0.5;exitDx=0;exitDy=0;exitPerimeter=0;" parent="jMzyqpWjSi7Y2Doyyjrz-6" source="jMzyqpWjSi7Y2Doyyjrz-58" target="CsdJewZucDD4-k5Zqt_t-42" edge="1">
          <mxGeometry relative="1" as="geometry">
            <mxPoint x="666" y="183" as="sourcePoint" />
            <mxPoint x="1081" y="203" as="targetPoint" />
          </mxGeometry>
        </mxCell>
        <mxCell id="CsdJewZucDD4-k5Zqt_t-54" style="edgeStyle=orthogonalEdgeStyle;rounded=0;orthogonalLoop=1;jettySize=auto;html=1;strokeColor=#00CC66;exitX=0.462;exitY=0.974;exitDx=0;exitDy=0;exitPerimeter=0;entryX=1.01;entryY=0.457;entryDx=0;entryDy=0;entryPerimeter=0;startArrow=classic;startFill=1;" parent="jMzyqpWjSi7Y2Doyyjrz-6" source="jMzyqpWjSi7Y2Doyyjrz-47" target="pcRGNQqygn--t2DNfjO_-15" edge="1">
          <mxGeometry relative="1" as="geometry">
            <mxPoint x="329" y="207" as="sourcePoint" />
            <mxPoint x="822" y="228" as="targetPoint" />
            <Array as="points">
              <mxPoint x="187" y="246" />
              <mxPoint x="246" y="246" />
              <mxPoint x="246" y="343" />
            </Array>
          </mxGeometry>
        </mxCell>
        <mxCell id="CsdJewZucDD4-k5Zqt_t-55" style="edgeStyle=orthogonalEdgeStyle;rounded=0;orthogonalLoop=1;jettySize=auto;html=1;strokeColor=#00CC66;exitX=0.514;exitY=1;exitDx=0;exitDy=0;exitPerimeter=0;entryX=0.517;entryY=0.071;entryDx=0;entryDy=0;entryPerimeter=0;startArrow=classic;startFill=1;" parent="jMzyqpWjSi7Y2Doyyjrz-6" source="jMzyqpWjSi7Y2Doyyjrz-48" target="pcRGNQqygn--t2DNfjO_-16" edge="1">
          <mxGeometry relative="1" as="geometry">
            <mxPoint x="279" y="259" as="sourcePoint" />
            <mxPoint x="305" y="423" as="targetPoint" />
          </mxGeometry>
        </mxCell>
        <mxCell id="CsdJewZucDD4-k5Zqt_t-56" value="" style="edgeStyle=orthogonalEdgeStyle;rounded=0;orthogonalLoop=1;jettySize=auto;html=1;fontFamily=Verdana;dashed=1;endArrow=classic;startFill=0;endFill=1;strokeColor=#999999;entryX=0.481;entryY=0.943;entryDx=0;entryDy=0;entryPerimeter=0;exitX=0.481;exitY=0.022;exitDx=0;exitDy=0;exitPerimeter=0;" parent="jMzyqpWjSi7Y2Doyyjrz-6" source="CsdJewZucDD4-k5Zqt_t-1" target="pcRGNQqygn--t2DNfjO_-15" edge="1">
          <mxGeometry relative="1" as="geometry">
            <mxPoint x="136" y="632" as="sourcePoint" />
            <mxPoint x="136" y="696" as="targetPoint" />
          </mxGeometry>
        </mxCell>
        <mxCell id="CsdJewZucDD4-k5Zqt_t-59" value="Storage&lt;br&gt;Account&lt;br&gt;Samples&lt;br&gt;(optional)" style="image;aspect=fixed;html=1;points=[];align=center;fontSize=12;image=img/lib/azure2/storage/Storage_Accounts.svg;fontFamily=Verdana;rounded=0;strokeColor=#C7C7C7;labelBackgroundColor=none;" parent="jMzyqpWjSi7Y2Doyyjrz-6" vertex="1">
          <mxGeometry x="307" y="300" width="65" height="52" as="geometry" />
        </mxCell>
        <mxCell id="CsdJewZucDD4-k5Zqt_t-62" style="edgeStyle=orthogonalEdgeStyle;rounded=0;orthogonalLoop=1;jettySize=auto;html=1;strokeColor=#00CC66;entryX=0.488;entryY=0.017;entryDx=0;entryDy=0;entryPerimeter=0;exitX=1.013;exitY=0.499;exitDx=0;exitDy=0;exitPerimeter=0;" parent="jMzyqpWjSi7Y2Doyyjrz-6" source="jMzyqpWjSi7Y2Doyyjrz-58" target="CsdJewZucDD4-k5Zqt_t-60" edge="1">
          <mxGeometry relative="1" as="geometry">
            <mxPoint x="661" y="177" as="sourcePoint" />
            <mxPoint x="1152" y="198" as="targetPoint" />
          </mxGeometry>
        </mxCell>
        <mxCell id="CsdJewZucDD4-k5Zqt_t-65" style="edgeStyle=orthogonalEdgeStyle;rounded=0;orthogonalLoop=1;jettySize=auto;html=1;strokeColor=#00CC66;entryX=0.498;entryY=0.003;entryDx=0;entryDy=0;entryPerimeter=0;exitX=0.953;exitY=0.499;exitDx=0;exitDy=0;exitPerimeter=0;" parent="jMzyqpWjSi7Y2Doyyjrz-6" source="jMzyqpWjSi7Y2Doyyjrz-58" target="jMzyqpWjSi7Y2Doyyjrz-48" edge="1">
          <mxGeometry relative="1" as="geometry">
            <mxPoint x="202" y="102" as="sourcePoint" />
            <mxPoint x="767" y="123" as="targetPoint" />
            <Array as="points">
              <mxPoint x="258" y="127" />
            </Array>
          </mxGeometry>
        </mxCell>
        <mxCell id="CsdJewZucDD4-k5Zqt_t-66" style="edgeStyle=orthogonalEdgeStyle;rounded=0;orthogonalLoop=1;jettySize=auto;html=1;strokeColor=#00CC66;exitX=0.513;exitY=0.988;exitDx=0;exitDy=0;exitPerimeter=0;entryX=0.505;entryY=0.047;entryDx=0;entryDy=0;entryPerimeter=0;startArrow=classic;startFill=1;" parent="jMzyqpWjSi7Y2Doyyjrz-6" source="jMzyqpWjSi7Y2Doyyjrz-50" target="CsdJewZucDD4-k5Zqt_t-59" edge="1">
          <mxGeometry relative="1" as="geometry">
            <mxPoint x="403" y="450" as="sourcePoint" />
            <mxPoint x="403" y="727" as="targetPoint" />
          </mxGeometry>
        </mxCell>
        <mxCell id="CsdJewZucDD4-k5Zqt_t-67" value="" style="edgeStyle=orthogonalEdgeStyle;rounded=0;orthogonalLoop=1;jettySize=auto;html=1;fontFamily=Verdana;dashed=1;endArrow=classic;startFill=0;endFill=1;strokeColor=#999999;entryX=0;entryY=0.519;entryDx=0;entryDy=0;entryPerimeter=0;exitX=0.717;exitY=-0.011;exitDx=0;exitDy=0;exitPerimeter=0;" parent="jMzyqpWjSi7Y2Doyyjrz-6" source="pcRGNQqygn--t2DNfjO_-16" target="CsdJewZucDD4-k5Zqt_t-59" edge="1">
          <mxGeometry relative="1" as="geometry">
            <mxPoint x="246" y="532" as="sourcePoint" />
            <mxPoint x="246" y="472" as="targetPoint" />
            <Array as="points">
              <mxPoint x="273" y="327" />
            </Array>
          </mxGeometry>
        </mxCell>
        <mxCell id="CsdJewZucDD4-k5Zqt_t-68" value="" style="endArrow=classic;html=1;rounded=0;endFill=1;strokeColor=#CC99FF;exitX=0.502;exitY=1.007;exitDx=0;exitDy=0;exitPerimeter=0;edgeStyle=orthogonalEdgeStyle;entryX=0.989;entryY=0.457;entryDx=0;entryDy=0;entryPerimeter=0;startArrow=classic;startFill=1;" parent="jMzyqpWjSi7Y2Doyyjrz-6" source="jMzyqpWjSi7Y2Doyyjrz-51" target="CsdJewZucDD4-k5Zqt_t-19" edge="1">
          <mxGeometry width="50" height="50" relative="1" as="geometry">
            <mxPoint x="748" y="531" as="sourcePoint" />
            <mxPoint x="803" y="531.34" as="targetPoint" />
            <Array as="points">
              <mxPoint x="411" y="237" />
              <mxPoint x="490" y="237" />
              <mxPoint x="490" y="338" />
            </Array>
          </mxGeometry>
        </mxCell>
        <mxCell id="CsdJewZucDD4-k5Zqt_t-69" value="" style="endArrow=classic;html=1;rounded=0;endFill=1;strokeColor=#CC99FF;exitX=0.523;exitY=0.971;exitDx=0;exitDy=0;exitPerimeter=0;edgeStyle=orthogonalEdgeStyle;startArrow=classic;startFill=1;entryX=0.02;entryY=0.502;entryDx=0;entryDy=0;entryPerimeter=0;" parent="jMzyqpWjSi7Y2Doyyjrz-6" source="CsdJewZucDD4-k5Zqt_t-60" target="CsdJewZucDD4-k5Zqt_t-20" edge="1">
          <mxGeometry width="50" height="50" relative="1" as="geometry">
            <mxPoint x="533" y="254" as="sourcePoint" />
            <mxPoint x="588" y="411" as="targetPoint" />
            <Array as="points">
              <mxPoint x="625" y="237" />
              <mxPoint x="542" y="237" />
              <mxPoint x="542" y="312" />
            </Array>
          </mxGeometry>
        </mxCell>
        <mxCell id="CsdJewZucDD4-k5Zqt_t-70" value="" style="endArrow=classic;html=1;rounded=0;endFill=1;strokeColor=#CC99FF;edgeStyle=orthogonalEdgeStyle;startArrow=classic;startFill=1;entryX=0.005;entryY=0.479;entryDx=0;entryDy=0;entryPerimeter=0;" parent="jMzyqpWjSi7Y2Doyyjrz-6" target="CsdJewZucDD4-k5Zqt_t-22" edge="1">
          <mxGeometry width="50" height="50" relative="1" as="geometry">
            <mxPoint x="553" y="182" as="sourcePoint" />
            <mxPoint x="700" y="422" as="targetPoint" />
            <Array as="points">
              <mxPoint x="553" y="219" />
              <mxPoint x="524" y="219" />
              <mxPoint x="524" y="409" />
            </Array>
          </mxGeometry>
        </mxCell>
        <mxCell id="CsdJewZucDD4-k5Zqt_t-71" value="" style="endArrow=classic;html=1;rounded=0;endFill=1;strokeColor=#CC99FF;edgeStyle=orthogonalEdgeStyle;startArrow=classic;startFill=1;entryX=-0.008;entryY=0.493;entryDx=0;entryDy=0;entryPerimeter=0;" parent="jMzyqpWjSi7Y2Doyyjrz-6" source="jMzyqpWjSi7Y2Doyyjrz-52" target="CsdJewZucDD4-k5Zqt_t-21" edge="1">
          <mxGeometry width="50" height="50" relative="1" as="geometry">
            <mxPoint x="806" y="378" as="sourcePoint" />
            <mxPoint x="812" y="605" as="targetPoint" />
            <Array as="points">
              <mxPoint x="483" y="219" />
              <mxPoint x="507" y="219" />
              <mxPoint x="507" y="508" />
            </Array>
          </mxGeometry>
        </mxCell>
        <mxCell id="CsdJewZucDD4-k5Zqt_t-3" value="" style="swimlane;startSize=0;strokeColor=#E8E8E8;" parent="jMzyqpWjSi7Y2Doyyjrz-6" vertex="1">
          <mxGeometry x="15" y="557" width="325" height="98" as="geometry" />
        </mxCell>
        <mxCell id="CsdJewZucDD4-k5Zqt_t-4" value="Key" style="text;html=1;align=center;verticalAlign=middle;resizable=0;points=[];autosize=1;strokeColor=none;fillColor=none;fontSize=9;fontFamily=Verdana;rounded=0;spacing=0;" parent="CsdJewZucDD4-k5Zqt_t-3" vertex="1">
          <mxGeometry x="8" width="31" height="19" as="geometry" />
        </mxCell>
        <mxCell id="CsdJewZucDD4-k5Zqt_t-5" value="Logical connection/relationships between services" style="text;html=1;align=left;verticalAlign=middle;resizable=0;points=[];autosize=1;strokeColor=none;fillColor=none;fontSize=9;fontFamily=Verdana;rounded=0;spacing=0;" parent="CsdJewZucDD4-k5Zqt_t-3" vertex="1">
          <mxGeometry x="5" y="17" width="240" height="19" as="geometry" />
        </mxCell>
        <mxCell id="CsdJewZucDD4-k5Zqt_t-6" value="Logs &amp;amp; metrics sent from resources" style="text;html=1;align=left;verticalAlign=middle;resizable=0;points=[];autosize=1;strokeColor=none;fillColor=none;fontSize=9;fontFamily=Verdana;rounded=0;spacing=0;" parent="CsdJewZucDD4-k5Zqt_t-3" vertex="1">
          <mxGeometry x="5" y="36" width="175" height="19" as="geometry" />
        </mxCell>
        <mxCell id="CsdJewZucDD4-k5Zqt_t-7" value="HTTPS traffic between user, apps &amp;amp; services" style="text;html=1;align=left;verticalAlign=middle;resizable=0;points=[];autosize=1;strokeColor=none;fillColor=none;fontSize=9;fontFamily=Verdana;rounded=0;spacing=0;" parent="CsdJewZucDD4-k5Zqt_t-3" vertex="1">
          <mxGeometry x="5" y="54" width="212" height="19" as="geometry" />
        </mxCell>
        <mxCell id="CsdJewZucDD4-k5Zqt_t-8" value="HTTPS traffic only when Hub is deployed" style="text;html=1;align=left;verticalAlign=middle;resizable=0;points=[];autosize=1;strokeColor=none;fillColor=none;fontSize=9;fontFamily=Verdana;rounded=0;spacing=0;" parent="CsdJewZucDD4-k5Zqt_t-3" vertex="1">
          <mxGeometry x="5" y="73" width="197" height="19" as="geometry" />
        </mxCell>
        <mxCell id="CsdJewZucDD4-k5Zqt_t-9" value="" style="endArrow=classic;html=1;rounded=0;endFill=1;strokeColor=#777777;dashed=1;" parent="CsdJewZucDD4-k5Zqt_t-3" edge="1">
          <mxGeometry width="50" height="50" relative="1" as="geometry">
            <mxPoint x="261" y="26" as="sourcePoint" />
            <mxPoint x="316" y="26" as="targetPoint" />
          </mxGeometry>
        </mxCell>
        <mxCell id="CsdJewZucDD4-k5Zqt_t-10" value="" style="endArrow=classic;html=1;rounded=0;endFill=1;strokeColor=#FFB366;" parent="CsdJewZucDD4-k5Zqt_t-3" edge="1">
          <mxGeometry width="50" height="50" relative="1" as="geometry">
            <mxPoint x="261" y="45" as="sourcePoint" />
            <mxPoint x="316" y="45" as="targetPoint" />
          </mxGeometry>
        </mxCell>
        <mxCell id="CsdJewZucDD4-k5Zqt_t-11" value="" style="endArrow=classic;html=1;rounded=0;endFill=1;strokeColor=#00CC66;" parent="CsdJewZucDD4-k5Zqt_t-3" edge="1">
          <mxGeometry width="50" height="50" relative="1" as="geometry">
            <mxPoint x="261" y="64.65999999999997" as="sourcePoint" />
            <mxPoint x="316" y="65" as="targetPoint" />
          </mxGeometry>
        </mxCell>
        <mxCell id="CsdJewZucDD4-k5Zqt_t-12" value="" style="endArrow=classic;html=1;rounded=0;endFill=1;strokeColor=#CC99FF;" parent="CsdJewZucDD4-k5Zqt_t-3" edge="1">
          <mxGeometry width="50" height="50" relative="1" as="geometry">
            <mxPoint x="261" y="83.65999999999997" as="sourcePoint" />
            <mxPoint x="316" y="84" as="targetPoint" />
          </mxGeometry>
        </mxCell>
        <mxCell id="CsdJewZucDD4-k5Zqt_t-72" value="AI&amp;nbsp;&lt;span style=&quot;color: light-dark(rgb(0, 0, 0), rgb(255, 255, 255));&quot;&gt;Applications&lt;/span&gt;" style="image;aspect=fixed;html=1;points=[];align=center;fontSize=12;image=img/lib/azure2/app_services/App_Services.svg;fontFamily=Verdana;labelBackgroundColor=none;labelPosition=center;verticalLabelPosition=top;verticalAlign=bottom;" parent="jMzyqpWjSi7Y2Doyyjrz-6" vertex="1">
          <mxGeometry x="863" y="97" width="68" height="68" as="geometry" />
        </mxCell>
        <mxCell id="CsdJewZucDD4-k5Zqt_t-73" value="Managed&#xa;Identity" style="image;aspect=fixed;html=1;points=[];align=right;image=img/lib/azure2/identity/Entra_Managed_Identities.svg;labelPosition=left;verticalLabelPosition=middle;verticalAlign=middle;spacing=2;fontSize=7;labelBackgroundColor=none;" parent="jMzyqpWjSi7Y2Doyyjrz-6" vertex="1">
          <mxGeometry x="858" y="105" width="20" height="17.78" as="geometry" />
        </mxCell>
        <mxCell id="CsdJewZucDD4-k5Zqt_t-74" value="Application Users" style="image;aspect=fixed;html=1;points=[];align=center;fontSize=12;image=img/lib/azure2/identity/Groups.svg;labelPosition=center;verticalLabelPosition=bottom;verticalAlign=top;labelBackgroundColor=none;" parent="jMzyqpWjSi7Y2Doyyjrz-6" vertex="1">
          <mxGeometry x="863" y="247" width="68" height="56.00000000000001" as="geometry" />
        </mxCell>
        <mxCell id="CsdJewZucDD4-k5Zqt_t-75" value="" style="endArrow=classic;html=1;rounded=0;endFill=1;strokeColor=#00CC66;entryX=0.507;entryY=-0.002;entryDx=0;entryDy=0;entryPerimeter=0;exitX=0.009;exitY=0.438;exitDx=0;exitDy=0;exitPerimeter=0;edgeStyle=orthogonalEdgeStyle;" parent="jMzyqpWjSi7Y2Doyyjrz-6" source="CsdJewZucDD4-k5Zqt_t-72" target="CsdJewZucDD4-k5Zqt_t-172" edge="1">
          <mxGeometry width="50" height="50" relative="1" as="geometry">
            <mxPoint x="952" y="319" as="sourcePoint" />
            <mxPoint x="1007" y="319.34000000000003" as="targetPoint" />
          </mxGeometry>
        </mxCell>
        <mxCell id="CsdJewZucDD4-k5Zqt_t-77" value="" style="endArrow=classic;html=1;rounded=0;endFill=1;strokeColor=#FFB366;edgeStyle=orthogonalEdgeStyle;exitX=0;exitY=0.5;exitDx=0;exitDy=0;" parent="jMzyqpWjSi7Y2Doyyjrz-6" source="CsdJewZucDD4-k5Zqt_t-78" target="pcRGNQqygn--t2DNfjO_-6" edge="1">
          <mxGeometry width="50" height="50" relative="1" as="geometry">
            <mxPoint x="776" y="548" as="sourcePoint" />
            <mxPoint x="831" y="548" as="targetPoint" />
            <Array as="points" />
          </mxGeometry>
        </mxCell>
        <mxCell id="pcRGNQqygn--t2DNfjO_-6" value="Log Analytics&lt;br&gt;workspace" style="image;aspect=fixed;html=1;points=[];align=center;fontSize=12;image=img/lib/azure2/analytics/Log_Analytics_Workspaces.svg;fontFamily=Verdana;rounded=0;strokeColor=#C7C7C7;labelBackgroundColor=none;" parent="jMzyqpWjSi7Y2Doyyjrz-6" vertex="1">
          <mxGeometry x="44" y="439" width="64" height="64" as="geometry" />
        </mxCell>
        <mxCell id="CsdJewZucDD4-k5Zqt_t-35" value="Managed&#xa;Identity" style="image;aspect=fixed;html=1;points=[];align=right;image=img/lib/azure2/identity/Entra_Managed_Identities.svg;labelPosition=left;verticalLabelPosition=middle;verticalAlign=middle;spacing=2;fontSize=7;labelBackgroundColor=none;" parent="jMzyqpWjSi7Y2Doyyjrz-6" vertex="1">
          <mxGeometry x="299" y="294.72" width="20" height="17.78" as="geometry" />
        </mxCell>
        <mxCell id="CsdJewZucDD4-k5Zqt_t-87" value="Managed&#xa;Identity" style="image;aspect=fixed;html=1;points=[];align=center;image=img/lib/azure2/identity/Entra_Managed_Identities.svg;labelPosition=center;verticalLabelPosition=top;verticalAlign=bottom;spacing=2;fontSize=7;labelBackgroundColor=none;" parent="jMzyqpWjSi7Y2Doyyjrz-6" vertex="1">
          <mxGeometry x="233" y="441" width="20" height="17.78" as="geometry" />
        </mxCell>
        <mxCell id="CsdJewZucDD4-k5Zqt_t-88" value="Managed&#xa;Identity" style="image;aspect=fixed;html=1;points=[];align=left;image=img/lib/azure2/identity/Entra_Managed_Identities.svg;labelPosition=right;verticalLabelPosition=middle;verticalAlign=middle;spacing=2;fontSize=7;labelBackgroundColor=none;" parent="jMzyqpWjSi7Y2Doyyjrz-6" vertex="1">
          <mxGeometry x="201" y="345" width="20" height="17.78" as="geometry" />
        </mxCell>
        <mxCell id="CsdJewZucDD4-k5Zqt_t-173" value="" style="endArrow=classic;html=1;rounded=0;endFill=1;strokeColor=#00CC66;exitX=0.481;exitY=0.008;exitDx=0;exitDy=0;exitPerimeter=0;" parent="jMzyqpWjSi7Y2Doyyjrz-6" source="CsdJewZucDD4-k5Zqt_t-74" target="CsdJewZucDD4-k5Zqt_t-72" edge="1">
          <mxGeometry width="50" height="50" relative="1" as="geometry">
            <mxPoint x="741" y="465" as="sourcePoint" />
            <mxPoint x="796" y="465.34000000000003" as="targetPoint" />
          </mxGeometry>
        </mxCell>
        <mxCell id="CsdJewZucDD4-k5Zqt_t-174" value="" style="endArrow=classic;html=1;rounded=0;endFill=1;strokeColor=#00CC66;entryX=0.491;entryY=0.002;entryDx=0;entryDy=0;entryPerimeter=0;exitX=0.015;exitY=0.438;exitDx=0;exitDy=0;exitPerimeter=0;edgeStyle=orthogonalEdgeStyle;" parent="jMzyqpWjSi7Y2Doyyjrz-6" source="CsdJewZucDD4-k5Zqt_t-72" target="CsdJewZucDD4-k5Zqt_t-60" edge="1">
          <mxGeometry width="50" height="50" relative="1" as="geometry">
            <mxPoint x="864" y="313" as="sourcePoint" />
            <mxPoint x="759" y="336" as="targetPoint" />
          </mxGeometry>
        </mxCell>
        <mxCell id="pcRGNQqygn--t2DNfjO_-11" value="&lt;font style=&quot;font-size: 16px;&quot;&gt;&lt;b style=&quot;&quot;&gt;Azure AI Foundry Jumpstart Solution Accelerator&lt;/b&gt;&lt;/font&gt;&lt;div&gt;&lt;font style=&quot;font-size: 16px;&quot;&gt;Zero-trust architecture with network isolation&lt;/font&gt;&lt;/div&gt;" style="text;html=1;align=left;verticalAlign=middle;resizable=0;points=[];autosize=1;strokeColor=none;fillColor=none;fontFamily=Verdana;rounded=0;" parent="pcRGNQqygn--t2DNfjO_-10" vertex="1">
          <mxGeometry x="82" y="5" width="461" height="51" as="geometry" />
        </mxCell>
        <mxCell id="pcRGNQqygn--t2DNfjO_-58" value="" style="shape=image;verticalLabelPosition=bottom;labelBackgroundColor=default;verticalAlign=top;aspect=fixed;imageAspect=0;editableCssRules=.*;image=data:image/svg+xml,PHN2ZyB4bWxucz0iaHR0cDovL3d3dy53My5vcmcvMjAwMC9zdmciIHZpZXdCb3g9IjQuMDAzNTE2MTk3MjA0NTkgNi41NDMwMDAyMjEyNTI0NDEgODcuOTkzMjU1NjE1MjM0MzggODIuOTEzMDAyMDE0MTYwMTYiIGhlaWdodD0iMTI5LjU1MTU2NTY0NzEyNTI0IiB3aWR0aD0iMTM3LjQ4OTQ2MTg5ODgwMzciPiYjeGE7ICAgIDxkZWZzPiYjeGE7ICAgICAgICA8bGluZWFyR3JhZGllbnQgZ3JhZGllbnRVbml0cz0idXNlclNwYWNlT25Vc2UiIGdyYWRpZW50VHJhbnNmb3JtPSJtYXRyaXgoMSAwIDAgLTEgMTA3NSAxNTgpIiB5Mj0iNjUuNDI2IiB5MT0iMTQ1LjMxMiIgeDI9Ii0xMDU5LjIxMyIgeDE9Ii0xMDMyLjE3MiIgaWQ9ImUzOTljMTlmLWI2OGYtNDI5ZC1iMTc2LTE4YzIxMTdmZjczYyI+JiN4YTsgICAgICAgICAgICA8c3RvcCBzdG9wLWNvbG9yPSIjMTE0YThiIiBvZmZzZXQ9IjAiLz4mI3hhOyAgICAgICAgICAgIDxzdG9wIHN0b3AtY29sb3I9IiMwNjY5YmMiIG9mZnNldD0iMSIvPiYjeGE7ICAgICAgICA8L2xpbmVhckdyYWRpZW50PiYjeGE7ICAgICAgICA8bGluZWFyR3JhZGllbnQgZ3JhZGllbnRVbml0cz0idXNlclNwYWNlT25Vc2UiIGdyYWRpZW50VHJhbnNmb3JtPSJtYXRyaXgoMSAwIDAgLTEgMTA3NSAxNTgpIiB5Mj0iMTA1Ljk2OCIgeTE9IjEwOC4wODMiIHgyPSItMTAyOS45OCIgeDE9Ii0xMDIzLjcyNSIgaWQ9ImFjMmE2ZmMyLWNhNDgtNDMyNy05YTNjLWQ0ZGNjMzI1NmUxNSI+JiN4YTsgICAgICAgICAgICA8c3RvcCBzdG9wLW9wYWNpdHk9Ii4zIiBvZmZzZXQ9IjAiLz4mI3hhOyAgICAgICAgICAgIDxzdG9wIHN0b3Atb3BhY2l0eT0iLjIiIG9mZnNldD0iLjA3MSIvPiYjeGE7ICAgICAgICAgICAgPHN0b3Agc3RvcC1vcGFjaXR5PSIuMSIgb2Zmc2V0PSIuMzIxIi8+JiN4YTsgICAgICAgICAgICA8c3RvcCBzdG9wLW9wYWNpdHk9Ii4wNSIgb2Zmc2V0PSIuNjIzIi8+JiN4YTsgICAgICAgICAgICA8c3RvcCBzdG9wLW9wYWNpdHk9IjAiIG9mZnNldD0iMSIvPiYjeGE7ICAgICAgICA8L2xpbmVhckdyYWRpZW50PiYjeGE7ICAgICAgICA8bGluZWFyR3JhZGllbnQgZ3JhZGllbnRVbml0cz0idXNlclNwYWNlT25Vc2UiIGdyYWRpZW50VHJhbnNmb3JtPSJtYXRyaXgoMSAwIDAgLTEgMTA3NSAxNTgpIiB5Mj0iNjguNTYxIiB5MT0iMTQ3LjY0MiIgeDI9Ii05OTcuNDgyIiB4MT0iLTEwMjcuMTY1IiBpZD0iYTdmZWU5NzAtYTc4NC00YmIxLWFmOGQtNjNkMThlNWY3ZGI5Ij4mI3hhOyAgICAgICAgICAgIDxzdG9wIHN0b3AtY29sb3I9IiMzY2NiZjQiIG9mZnNldD0iMCIvPiYjeGE7ICAgICAgICAgICAgPHN0b3Agc3RvcC1jb2xvcj0iIzI4OTJkZiIgb2Zmc2V0PSIxIi8+JiN4YTsgICAgICAgIDwvbGluZWFyR3JhZGllbnQ+JiN4YTsgICAgPC9kZWZzPiYjeGE7ICAgIDxwYXRoIGQ9Ik0zMy4zMzggNi41NDRoMjYuMDM4bC0yNy4wMyA4MC4wODdhNC4xNTIgNC4xNTIgMCAwIDEtMy45MzMgMi44MjRIOC4xNDlhNC4xNDUgNC4xNDUgMCAwIDEtMy45MjgtNS40N0wyOS40MDQgOS4zNjhhNC4xNTIgNC4xNTIgMCAwIDEgMy45MzQtMi44MjV6IiBmaWxsPSJ1cmwoI2UzOTljMTlmLWI2OGYtNDI5ZC1iMTc2LTE4YzIxMTdmZjczYykiLz4mI3hhOyAgICA8cGF0aCBkPSJNNzEuMTc1IDYwLjI2MWgtNDEuMjlhMS45MTEgMS45MTEgMCAwIDAtMS4zMDUgMy4zMDlsMjYuNTMyIDI0Ljc2NGE0LjE3MSA0LjE3MSAwIDAgMCAyLjg0NiAxLjEyMWgyMy4zOHoiIGZpbGw9IiMwMDc4ZDQiLz4mI3hhOyAgICA8cGF0aCBkPSJNMzMuMzM4IDYuNTQ0YTQuMTE4IDQuMTE4IDAgMCAwLTMuOTQzIDIuODc5TDQuMjUyIDgzLjkxN2E0LjE0IDQuMTQgMCAwIDAgMy45MDggNS41MzhoMjAuNzg3YTQuNDQzIDQuNDQzIDAgMCAwIDMuNDEtMi45bDUuMDE0LTE0Ljc3NyAxNy45MSAxNi43MDVhNC4yMzcgNC4yMzcgMCAwIDAgMi42NjYuOTcySDgxLjI0TDcxLjAyNCA2MC4yNjFsLTI5Ljc4MS4wMDdMNTkuNDcgNi41NDR6IiBmaWxsPSJ1cmwoI2FjMmE2ZmMyLWNhNDgtNDMyNy05YTNjLWQ0ZGNjMzI1NmUxNSkiLz4mI3hhOyAgICA8cGF0aCBkPSJNNjYuNTk1IDkuMzY0YTQuMTQ1IDQuMTQ1IDAgMCAwLTMuOTI4LTIuODJIMzMuNjQ4YTQuMTQ2IDQuMTQ2IDAgMCAxIDMuOTI4IDIuODJsMjUuMTg0IDc0LjYyYTQuMTQ2IDQuMTQ2IDAgMCAxLTMuOTI4IDUuNDcyaDI5LjAyYTQuMTQ2IDQuMTQ2IDAgMCAwIDMuOTI3LTUuNDcyeiIgZmlsbD0idXJsKCNhN2ZlZTk3MC1hNzg0LTRiYjEtYWY4ZC02M2QxOGU1ZjdkYjkpIi8+JiN4YTs8L3N2Zz4=;rounded=0;strokeColor=#C7C7C7;fontFamily=Verdana;" parent="pcRGNQqygn--t2DNfjO_-10" vertex="1">
          <mxGeometry x="26.5" y="10" width="42.16" height="40" as="geometry" />
        </mxCell>
        <mxCell id="jMzyqpWjSi7Y2Doyyjrz-60" value="" style="edgeStyle=orthogonalEdgeStyle;rounded=0;orthogonalLoop=1;jettySize=auto;html=1;strokeColor=#00CC66;" parent="A9TOfrX54KiNDDk2kyXw-1" source="pcRGNQqygn--t2DNfjO_-12" target="jMzyqpWjSi7Y2Doyyjrz-58" edge="1">
          <mxGeometry relative="1" as="geometry" />
        </mxCell>
        <mxCell id="pcRGNQqygn--t2DNfjO_-12" value="AI Developers" style="image;aspect=fixed;html=1;points=[];align=center;fontSize=12;image=img/lib/azure2/identity/Users.svg;fontFamily=Verdana;rounded=0;strokeColor=#C7C7C7;" parent="A9TOfrX54KiNDDk2kyXw-1" vertex="1">
          <mxGeometry x="39" y="182" width="64" height="70" as="geometry" />
        </mxCell>
        <mxCell id="CsdJewZucDD4-k5Zqt_t-84" value="" style="endArrow=none;html=1;rounded=0;endFill=1;strokeColor=#FFB366;edgeStyle=orthogonalEdgeStyle;exitX=0.993;exitY=0.581;exitDx=0;exitDy=0;exitPerimeter=0;startFill=0;" parent="A9TOfrX54KiNDDk2kyXw-1" source="pcRGNQqygn--t2DNfjO_-16" edge="1">
          <mxGeometry width="50" height="50" relative="1" as="geometry">
            <mxPoint x="641.28" y="719.364" as="sourcePoint" />
            <mxPoint x="442" y="639" as="targetPoint" />
            <Array as="points">
              <mxPoint x="435" y="572" />
              <mxPoint x="495" y="572" />
            </Array>
          </mxGeometry>
        </mxCell>
        <mxCell id="CsdJewZucDD4-k5Zqt_t-85" value="" style="endArrow=none;html=1;rounded=0;endFill=1;strokeColor=#FFB366;edgeStyle=orthogonalEdgeStyle;exitX=0.003;exitY=0.769;exitDx=0;exitDy=0;exitPerimeter=0;startFill=0;" parent="A9TOfrX54KiNDDk2kyXw-1" source="CsdJewZucDD4-k5Zqt_t-59" edge="1">
          <mxGeometry width="50" height="50" relative="1" as="geometry">
            <mxPoint x="501" y="596" as="sourcePoint" />
            <mxPoint x="442" y="638" as="targetPoint" />
          </mxGeometry>
        </mxCell>
        <mxCell id="CsdJewZucDD4-k5Zqt_t-86" value="" style="endArrow=none;html=1;rounded=0;endFill=1;strokeColor=#FFB366;edgeStyle=orthogonalEdgeStyle;exitX=0.017;exitY=0.447;exitDx=0;exitDy=0;exitPerimeter=0;startFill=0;" parent="A9TOfrX54KiNDDk2kyXw-1" source="pcRGNQqygn--t2DNfjO_-15" edge="1">
          <mxGeometry width="50" height="50" relative="1" as="geometry">
            <mxPoint x="488" y="609" as="sourcePoint" />
            <mxPoint x="274" y="639" as="targetPoint" />
          </mxGeometry>
        </mxCell>
      </root>
    </mxGraphModel>
  </diagram>
</mxfile>
